# xmcd CD database file
#
# Track frame offsets:
#	150
#	11293
#	27465
#	46047
#	87885
#	117162
#	130149
#	146140
#	159388
#	200012
#	216770
#	240319
#	259886
#	273956
#
# Disc length: 3976 seconds
#
# Revision: 0
# Processed by: cddbd v1.5.2PL0 Copyright (c) Steve Scherf et al.
# Submitted via: CDex 1.51
#
DISCID=bb0f860e
DTITLE=Johan Willem Friso Band - Sword of Honour
DYEAR=2007
DGENRE=Wind Band
TTITLE0=Jeremiah Clarke - The Royal Duke
TTITLE1=Charles Gounod - Marche Pontificale
TTITLE2=Dimitri Shostakovich - Romance
TTITLE3=Tom de Haes - Sword of Honour
TTITLE4=Franz Schubert - Ave Maria
TTITLE5=Robert Buckley - Cascadia Suite I. Cascadia
TTITLE6=Robert Buckley - Cascadia Suite II. Cathedral Grove
TTITLE7=Robert Buckley - Cascadia Suite III. Sea to Sky
TTITLE8=Jacob de Haan - The Heart of Lithuania
TTITLE9=Grieg, Lennon, McCartney - Norwegian Woodn't
TTITLE10=Rob Wiffin - Chase the Sun
TTITLE11=Michel Fugain and Pierre Leroyer - Une belle histoire
TTITLE12=Trad. - Dance Away
TTITLE13=Rodgers, Hart and Hammerstein - Richard Rodgers Medley
EXTD=YEAR: 2007
EXTT0=
EXTT1=
EXTT2=
EXTT3=
EXTT4=
EXTT5=
EXTT6=
EXTT7=
EXTT8=
EXTT9=
EXTT10=
EXTT11=
EXTT12=
EXTT13=
PLAYORDER=
